# xmcd CD database file
#
# Track frame offsets:
#	150
#	25670
#	55283
#	80420
#	104169
#	125553
#	159142
#	184452
#	208997
#	230437
#	260825
#
# Disc length: 4156 seconds
#
# Revision: 6
# Processed by: cddbd v1.5.2PL0 Copyright (c) Steve Scherf et al.
# Submitted via: CDex 1.70beta3
#
DISCID=9e103a0b
DTITLE=globe - 15YEARS -BEST HIT SELECTION-
DYEAR=2010
DGENRE=JPop
TTITLE0=I'm still alone
TTITLE1=Stop! In the Name of Love
TTITLE2=Judgement
TTITLE3=Regret of the Day
TTITLE4=Love goes on!!
TTITLE5=OVER THE RAINBOW
TTITLE6=on the way to YOU
TTITLE7=You are the one
TTITLE8=Get Wild
TTITLE9=Spicy Girls
TTITLE10=Get Wild(Video Clip)
EXTD=YEAR: 2010
EXTT0=
EXTT1=
EXTT2=
EXTT3=
EXTT4=
EXTT5=
EXTT6=
EXTT7=
EXTT8=
EXTT9=
EXTT10=
PLAYORDER=
